<svg xmlns="http://www.w3.org/2000/svg" xmlns:xlink="http://www.w3.org/1999/xlink" width="64" height="64" viewBox="0 0 64 64">
    <polygon points="0,0 64,0 64,64 0,64" style="fill:#ffffff;" />
    <g id="grid" stroke="#000000" stroke-width="2">
        <line x1="23" x2="23" y1="10" y2="54" />
        <line x1="40" x2="40" y1="10" y2="54" />
        <line x1="10" x2="54" y1="23" y2="23" />
        <line x1="10" x2="54" y1="40" y2="40" />
    </g>
    <g id="middle-x" stroke="#000000" stroke-width="1">
        <line x1="26" x2="37" y1="26" y2="37" />
        <line x1="37" x2="26" y1="26" y2="37" />
    </g>
    <circle id="upper-left-o" cx="16" cy="16" r="5" style="fill-opacity:0;stroke:#000000;" />
    <g id="middle-left-x" stroke="#000000" stroke-width="1">
        <line x1="10" x2="21" y1="26" y2="37" />
        <line x1="21" x2="10" y1="26" y2="37" />        
    </g>
    <circle id="lower-middle-o" cx="31.25" cy="47.6" r="5" style="fill-opacity:0;stroke:#000000;" />
    <g id="upper-right-x" stroke="#000000" stroke-width="1">
        <line x1="42" x2="53" y1="10" y2="21" />
        <line x1="53" x2="42" y1="10" y2="21" />      
    </g>
    <g id="lower-left-x" stroke="#000000" stroke-width="1">
        <line x1="10" x2="21" y1="43" y2="54" />
        <line x1="21" x2="10" y1="43" y2="54" />      
    </g>
    <circle id="middle-right-circle" cx="48" cy="31.5" r="5" style="fill-opacity:0;stroke:#000000;" />
    <path id="checkline" d="M 8 53 C 22.3,67.6 27,18.5 55.6, 10.3 " style="fill-opacity:0;stroke:#ff0000;stroke-width:1.02238309" />
</svg>